#!OML:ASF X:\für Bonn\!DataBase\2005_08_10_Bjorn_Final\c3d\bjorn.ASF
:FULLY-SPECIFIED
:DEGREES
426
root -0.435331 1.47948 22.3149 -445.016 -173.119 370.846
lowerback 58.3197 2.01338 16.6011
upperback 24.4657 -3.19186 1.12846
thorax 7.34059 -6.79593 -5.80554
lowerneck 4.87923 9.46869 4.44151
upperneck 14.2606 11.8295 -0.911262
head 4.22128 5.60219 -0.803341
rclavicle -3.3197e-014 4.77083e-015
rhumerus -160.452 -161.214 105.962
rradius 20.9457
rwrist 19.9526
rhand -10.703 13.6461
rfingers 7.12502
rthumb 15.3066 -15.7674
lclavicle -3.3197e-014 4.77083e-015
lhumerus -342.461 -23.9775 -305.316
lradius 45.1102
lwrist -10.3162
lhand -38.0407 -14.2651
lfingers 7.12502
lthumb -11.0785 15.4225
rfemur -57.8245 -23.0735 -3.72361
rtibia 116.306
rfoot 37.6132 18.2686
rtoes -9.31754
lfemur -62.5916 3.70134 -14.7802
ltibia 113.9
lfoot 29.4786 9.6277
ltoes 11.4038
427
root -0.436462 1.4709 22.3227 -445.046 -173.102 370.893
lowerback 57.7039 2.21578 16.2825
upperback 24.5037 -3.02901 1.07697
thorax 7.3745 -6.65548 -5.8083
lowerneck 4.71514 9.33258 4.33583
upperneck 14.3928 11.6109 -0.69689
head 4.26729 5.49133 -0.712848
rclavicle -2.48481e-014 0
rhumerus -159.938 -159.963 105.105
rradius 20.3017
rwrist 20.0845
rhand -9.80808 12.7999
rfingers 7.12502
rthumb 16.1685 -16.5457
lclavicle -2.48481e-014 0
lhumerus -342.184 -23.7984 -304.513
lradius 44.8363
lwrist -10.5381
lhand -37.8825 -14.3707
lfingers 7.12502
lthumb -10.9259 15.325
rfemur -57.7569 -22.9101 -3.69472
rtibia 116.127
rfoot 37.754 18.1903
rtoes -9.22654
lfemur -62.5808 3.68195 -14.8158
ltibia 113.823
lfoot 29.5241 9.66627
ltoes 11.3989
428
root -0.438898 1.46377 22.3314 -445.09 -173.067 370.931
lowerback 57.0879 2.43147 15.9509
upperback 24.5546 -2.86272 1.04166
thorax 7.42917 -6.52074 -5.79035
lowerneck 4.48469 9.17885 4.12748
upperneck 14.4914 11.3677 -0.428731
head 4.30164 5.36831 -0.586765
rclavicle -7.67309e-014 3.65764e-014
rhumerus -159.455 -158.848 104.366
rradius 19.7092
rwrist 20.1931
rhand -8.91218 12.029
rfingers 7.12502
rthumb 17.031 -17.2445
lclavicle -7.67309e-014 3.65764e-014
lhumerus -341.91 -23.6488 -303.727
lradius 44.5545
lwrist -10.7644
lhand -37.6554 -14.4659
lfingers 7.12502
lthumb -10.7069 15.2413
rfemur -57.6492 -22.7347 -3.71242
rtibia 115.931
rfoot 37.9256 18.0564
rtoes -9.14438
lfemur -62.5312 3.6511 -14.8767
ltibia 113.746
lfoot 29.5487 9.707
ltoes 11.3911
429
root -0.4408 1.45602 22.34 -445.108 -173.049 370.99
lowerback 56.4605 2.62252 15.626
upperback 24.5707 -2.69463 0.995922
thorax 7.44722 -6.37512 -5.77938
lowerneck 4.27878 9.02388 3.96026
upperneck 14.641 11.1184 -0.174388
head 4.356 5.24146 -0.472035
rclavicle 3.89618e-014 -2.70347e-014
rhumerus -159.049 -157.822 103.69
rradius 19.1264
rwrist 20.33
rhand -8.02862 11.264
rfingers 7.12502
rthumb 17.8813 -17.9339
lclavicle 3.89618e-014 -2.70347e-014
lhumerus -341.791 -23.5262 -302.957
lradius 44.3701
lwrist -11.039
lhand -37.2147 -14.5844
lfingers 7.12502
lthumb -10.2818 15.1443
rfemur -57.5711 -22.5885 -3.69088
rtibia 115.733
rfoot 38.081 17.9251
rtoes -9.00761
lfemur -62.5426 3.6299 -14.9167
ltibia 113.675
lfoot 29.6117 9.70025
ltoes 11.2337
430
root -0.443185 1.44949 22.3478 -445.135 -173.032 371.037
lowerback 55.831 2.8457 15.2462
upperback 24.5875 -2.51764 0.990993
thorax 7.46942 -6.24144 -5.70209
lowerneck 4.12015 8.86259 3.78659
upperneck 14.7443 10.8749 -0.0128758
head 4.39243 5.11493 -0.389777
rclavicle 4.9895e-014 -2.54444e-014
rhumerus -158.654 -156.912 103.126
rradius 18.5522
rwrist 20.4988
rhand -7.11434 10.5168
rfingers 7.12502
rthumb 18.7609 -18.5985
lclavicle 4.9895e-014 -2.54444e-014
lhumerus -341.792 -23.4139 -302.18
lradius 44.2924
lwrist -11.2231
lhand -36.7408 -14.7059
lfingers 7.12502
lthumb -9.82453 15.0449
rfemur -57.476 -22.4524 -3.6814
rtibia 115.534
rfoot 38.2322 17.8048
rtoes -8.97256
lfemur -62.5212 3.61548 -14.9539
ltibia 113.607
lfoot 29.6209 9.77709
ltoes 11.3158
